<?xml version="1.0" encoding="utf-8"?>
<!-- Svg Vector Icons : http://www.onlinewebfonts.com/icon -->
<!DOCTYPE svg PUBLIC "-//W3C//DTD SVG 1.1//EN" "http://www.w3.org/Graphics/SVG/1.1/DTD/svg11.dtd">
<svg version="1.1" xmlns="http://www.w3.org/2000/svg" xmlns:xlink="http://www.w3.org/1999/xlink" x="0px" y="0px" viewBox="0 0 256 256" enable-background="new 0 0 256 256" xml:space="preserve">
<metadata> Svg Vector Icons : http://www.onlinewebfonts.com/icon </metadata>
<g><g><path fill="#000000" d="M186.1,152.7c4.7-4.7,4.7-11.8,0-16.4l-49.3-49.3c-2.4-2.4-5.9-3.5-8.2-3.5l0,0c-3.5,0-5.9,1.2-8.2,3.5l-1.2,1.2L71,136.2c-4.7,4.7-4.7,11.8,0,16.4c4.7,4.7,11.8,4.7,16.4,0l28.2-29.4v98.6c0,7.1,4.7,11.8,11.8,11.8s11.8-4.7,11.8-11.8v-99.8l30.5,30.5C174.4,157.4,181.4,157.4,186.1,152.7z"/><path fill="#000000" d="M202.6,75.2c-10.6-31.7-39.9-52.8-74-52.8S64,43.5,53.4,75.2C27.6,83.4,10,105.7,10,132.7c0,32.9,27,61,61,61c7.1,0,11.8-4.7,11.8-11.8c0-7.1-4.7-11.8-11.8-11.8c-20,0-37.6-16.4-37.6-37.6c0-17.6,12.9-32.9,30.5-36.4c4.7-1.2,8.2-4.7,9.4-9.4c7-24.6,29.4-41.1,55.2-41.1c25.8,0,48.1,17.6,54,42.3c1.2,4.7,4.7,8.2,9.4,9.4c17.6,3.5,30.5,18.8,30.5,36.4c0,20-16.4,37.6-37.6,37.6c-7.1,0-11.8,4.7-11.8,11.8c0,7.1,4.7,11.8,11.8,11.8c32.9,0,61-27,61-61C246,105.7,228.4,82.2,202.6,75.2z"/></g></g>
</svg>